<svg width="387" height="117" viewBox="0 0 387 117" fill="none" xmlns="http://www.w3.org/2000/svg">
<path d="M32.656 86.812C26.7013 86.812 21.3653 85.8453 16.648 83.912C11.9307 81.9787 8.14133 79.1173 5.28 75.328C2.496 71.5387 1.02667 66.976 0.872 61.64H21.984C22.2933 64.656 23.3373 66.976 25.116 68.6C26.8947 70.1467 29.2147 70.92 32.076 70.92C35.0147 70.92 37.3347 70.2627 39.036 68.948C40.7373 67.556 41.588 65.6613 41.588 63.264C41.588 61.2533 40.892 59.5907 39.5 58.276C38.1853 56.9613 36.5227 55.8787 34.512 55.028C32.5787 54.1773 29.7947 53.2107 26.16 52.128C20.9013 50.504 16.6093 48.88 13.284 47.256C9.95867 45.632 7.09733 43.2347 4.7 40.064C2.30267 36.8933 1.104 32.756 1.104 27.652C1.104 20.0733 3.84933 14.1573 9.34 9.904C14.8307 5.57333 21.984 3.408 30.8 3.408C39.7707 3.408 47.0013 5.57333 52.492 9.904C57.9827 14.1573 60.9213 20.112 61.308 27.768H39.848C39.6933 25.1387 38.7267 23.0893 36.948 21.62C35.1693 20.0733 32.888 19.3 30.104 19.3C27.7067 19.3 25.7733 19.9573 24.304 21.272C22.8347 22.5093 22.1 24.3267 22.1 26.724C22.1 29.3533 23.3373 31.4027 25.812 32.872C28.2867 34.3413 32.1533 35.9267 37.412 37.628C42.6707 39.4067 46.924 41.108 50.172 42.732C53.4973 44.356 56.3587 46.7147 58.756 49.808C61.1533 52.9013 62.352 56.884 62.352 61.756C62.352 66.396 61.1533 70.6107 58.756 74.4C56.436 78.1893 53.0333 81.2053 48.548 83.448C44.0627 85.6907 38.7653 86.812 32.656 86.812ZM113.767 20.576C121.191 20.576 127.146 23.0507 131.631 28C136.117 32.872 138.359 39.6 138.359 48.184V86H118.639V50.852C118.639 46.5213 117.518 43.1573 115.275 40.76C113.033 38.3627 110.017 37.164 106.227 37.164C102.438 37.164 99.4219 38.3627 97.1792 40.76C94.9365 43.1573 93.8152 46.5213 93.8152 50.852V86H73.9792V0.159999H93.8152V29.972C95.8259 27.1107 98.5712 24.8293 102.051 23.128C105.531 21.4267 109.437 20.576 113.767 20.576ZM181.027 86.928C174.686 86.928 168.963 85.5747 163.859 82.868C158.833 80.1613 154.85 76.2947 151.911 71.268C149.05 66.2413 147.619 60.364 147.619 53.636C147.619 46.9853 149.089 41.1467 152.027 36.12C154.966 31.016 158.987 27.1107 164.091 24.404C169.195 21.6973 174.918 20.344 181.259 20.344C187.601 20.344 193.323 21.6973 198.427 24.404C203.531 27.1107 207.553 31.016 210.491 36.12C213.43 41.1467 214.899 46.9853 214.899 53.636C214.899 60.2867 213.391 66.164 210.375 71.268C207.437 76.2947 203.377 80.1613 198.195 82.868C193.091 85.5747 187.369 86.928 181.027 86.928ZM181.027 69.76C184.817 69.76 188.026 68.368 190.655 65.584C193.362 62.8 194.715 58.8173 194.715 53.636C194.715 48.4547 193.401 44.472 190.771 41.688C188.219 38.904 185.049 37.512 181.259 37.512C177.393 37.512 174.183 38.904 171.631 41.688C169.079 44.3947 167.803 48.3773 167.803 53.636C167.803 58.8173 169.041 62.8 171.515 65.584C174.067 68.368 177.238 69.76 181.027 69.76ZM244.679 32.06C246.999 28.5027 249.899 25.7187 253.379 23.708C256.859 21.62 260.725 20.576 264.979 20.576V41.572H259.527C254.577 41.572 250.865 42.6547 248.391 44.82C245.916 46.908 244.679 50.62 244.679 55.956V86H224.843V21.272H244.679V32.06ZM309.956 69.18V86H299.864C292.672 86 287.065 84.26 283.044 80.78C279.022 77.2227 277.012 71.4613 277.012 63.496V37.744H269.124V21.272H277.012V5.496H296.848V21.272H309.84V37.744H296.848V63.728C296.848 65.6613 297.312 67.0533 298.24 67.904C299.168 68.7547 300.714 69.18 302.88 69.18H309.956ZM386.545 21.272L345.945 116.74H324.601L339.449 83.796L313.117 21.272H335.273L350.237 61.756L365.085 21.272H386.545Z" fill="white"/>
</svg>
